<svg xmlns="http://www.w3.org/2000/svg" xmlns:xlink="http://www.w3.org/1999/xlink" viewBox="0 0 64 64" width="128px" height="128px"><defs><linearGradient id="VekdxHGSNXBX8N9pSWuiia" x1="31.998" x2="31.998" y1="3.239" y2="23.854" data-name="New Gradient Swatch 3" gradientUnits="userSpaceOnUse"><stop offset="0" stop-color="#6dc7ff"/><stop offset="1" stop-color="#e6abff"/></linearGradient><linearGradient id="VekdxHGSNXBX8N9pSWuiib" x1="15.5" x2="15.5" y1="3.239" y2="23.854" xlink:href="#VekdxHGSNXBX8N9pSWuiia"/><linearGradient id="VekdxHGSNXBX8N9pSWuiic" x1="48.5" x2="48.5" y1="3.239" y2="23.854" xlink:href="#VekdxHGSNXBX8N9pSWuiia"/><linearGradient id="VekdxHGSNXBX8N9pSWuiid" x1="32" x2="32" y1="23" y2="59" data-name="Безымянный градиент 12" gradientUnits="userSpaceOnUse"><stop offset="0" stop-color="#1a6dff"/><stop offset="1" stop-color="#c822ff"/></linearGradient></defs><path fill="url(#VekdxHGSNXBX8N9pSWuiia)" d="M32.42513,5.29076a.45635.45635,0,0,0-.84933-.00295,13.26808,13.26808,0,0,1-2.73091,3.96141,12.1347,12.1347,0,0,1-3.57573,2.6429.50314.50314,0,0,0,.00264.89679A17.47789,17.47789,0,0,1,31.58569,19.73a.45266.45266,0,0,0,.82834,0,17.47781,17.47781,0,0,1,6.31387-6.94108.5056.5056,0,0,0-.02467-.90891A14.09081,14.09081,0,0,1,32.42513,5.29076Z"/><path fill="url(#VekdxHGSNXBX8N9pSWuiib)" d="M10,21.99945c.05291-.33546.45575-.72272,1-.99945,2-1,13-2,15-2,0-3-5-4-5-6-1,0-16,4-16,7s7,4,8,4a6.95076,6.95076,0,0,1-1.93378-2.56207A2.45315,2.45315,0,0,0,10,21.99945Z"/><path fill="url(#VekdxHGSNXBX8N9pSWuiic)" d="M54,21.99945c-.05291-.33546-.45575-.72272-1-.99945-2-1-13-2-15-2,0-3,5-4,5-6,1,0,16,4,16,7s-7,4-8,4a6.95076,6.95076,0,0,0,1.93378-2.56207A2.45315,2.45315,0,0,1,54,21.99945Z"/><path fill="url(#VekdxHGSNXBX8N9pSWuiid)" d="M34.09814,59C22.49658,59,15,51.51758,15,39.9375A16.58126,16.58126,0,0,1,31.96875,23a20.3348,20.3348,0,0,1,7.40283,1.10742A15.27036,15.27036,0,0,0,45,25a1,1,0,0,1,1,1V37a1.00007,1.00007,0,0,1-1.96338.26758C43.94189,36.93018,41.63574,29,34,29c-7.78223,0-8,10.89014-8,11,0,2.02051,1.4751,13,8,13a1.6494,1.6494,0,0,0,1.26465-.47949,3.88438,3.88438,0,0,0,.73633-2.47217L36,50l.00244-.38574c.01172-1.39551.02979-3.50488-1.12451-4.66944A3.81782,3.81782,0,0,0,32.03125,44a1,1,0,0,1,0-2H48a.99985.99985,0,0,1,.31543,1.94873c-2.23682.74463-2.32666,2.27637-2.31641,8.01514L46,53a1.00071,1.00071,0,0,1-.2002.6001C42.231,58.3584,37.88184,59,34.09814,59ZM31.96875,25A14.62509,14.62509,0,0,0,17,39.9375C17,50.46191,23.55176,57,34.09814,57c4.59668,0,7.49122-1.26123,9.90137-4.33838l-.00049-.69433c-.00683-3.76612-.01123-6.31055,1.00879-7.96729H36.70166c1.334,1.74316,1.31348,4.14551,1.30078,5.63135L38,49.98145a5.78146,5.78146,0,0,1-1.2876,3.91845A3.64006,3.64006,0,0,1,34,55c-8.26172,0-10-12.53271-10-15,0-3.61572,1.79639-13,10-13a11.7282,11.7282,0,0,1,10,5.65967V26.98242a16.55247,16.55247,0,0,1-5.25244-.97461A18.38712,18.38712,0,0,0,31.96875,25Z"/></svg>